<?xml version="1.0" encoding="utf-8"?>
<!-- Generator: Adobe Illustrator 21.1.0, SVG Export Plug-In . SVG Version: 6.00 Build 0)  -->
<svg version="1.1" id="Capa_1" xmlns="http://www.w3.org/2000/svg" xmlns:xlink="http://www.w3.org/1999/xlink" x="0px" y="0px"
	 viewBox="0 0 512 358.4" style="enable-background:new 0 0 512 358.4;" xml:space="preserve">
<style type="text/css">
	.st0{fill:#FFFFFF;}
</style>
<g>
	<g>
		<path class="st0" d="M40.5,21.2l184.4,146.1c8.4,6.6,19.9,9.6,31.1,9c11.2,0.6,22.7-2.4,31.1-9L471.5,21.2
			C486.2,9.5,482.9,0,464.2,0H256H47.9C29.1,0,25.7,9.5,40.5,21.2z"/>
		<path class="st0" d="M484.8,59.7l-201.5,153c-7.5,5.7-17.4,8.4-27.2,8.3c-9.9,0.1-19.7-2.6-27.3-8.3L27.2,59.7
			C12.2,48.4,0,54.5,0,73.2v251c0,18.8,15.4,34.1,34.1,34.1H256h221.9c18.8,0,34.1-15.4,34.1-34.1v-251
			C512,54.5,499.8,48.4,484.8,59.7z"/>
	</g>
</g>
</svg>
