<?xml version="1.0" encoding="utf-8"?>
<!-- Generator: Adobe Illustrator 21.1.0, SVG Export Plug-In . SVG Version: 6.00 Build 0)  -->
<svg version="1.1" id="Capa_1" xmlns="http://www.w3.org/2000/svg" xmlns:xlink="http://www.w3.org/1999/xlink" x="0px" y="0px"
	 viewBox="0 0 512 512" style="enable-background:new 0 0 512 512;" xml:space="preserve">
<style type="text/css">
	.st0{fill:#FFFFFF;}
</style>
<g>
	<g>
		<path class="st0" d="M49.1,159.7c6.5,5.7,26,22.6,58.6,50.8c32.6,28.2,57.5,49.9,74.9,65.1c1.9,1.7,6,5.3,12.1,10.9
			c6.2,5.6,11.3,10.1,15.4,13.6c4.1,3.4,9,7.3,14.9,11.6c5.8,4.3,11.3,7.5,16.4,9.6c5.1,2.1,9.9,3.2,14.3,3.2h0.3h0.3
			c4.4,0,9.1-1.1,14.3-3.2c5.1-2.1,10.6-5.3,16.4-9.6c5.8-4.3,10.8-8.1,14.9-11.6c4.1-3.4,9.2-8,15.4-13.6
			c6.2-5.6,10.2-9.2,12.1-10.9c17.5-15.2,62.1-53.8,133.7-115.9c13.9-12.1,25.5-26.7,34.9-43.9c9.3-17.1,14-35.1,14-53.8
			c0-15.7-4.5-29.1-13.6-40.3C489.4,10.6,478.7,5,466.3,5H45.7c-14.7,0-26,6.2-33.9,18.5C4,35.9,0,51.3,0,69.9
			c0,15,5.2,31.2,15.7,48.7C26.2,136,37.3,149.8,49.1,159.7z"/>
		<path class="st0" d="M483.4,197.9c-62.5,52.8-109.9,93.8-142.3,123c-10.9,10-19.7,17.8-26.4,23.4c-6.8,5.6-15.8,11.3-27,17.1
			c-11.2,5.8-21.7,8.7-31.4,8.7H256h-0.3c-9.7,0-20.2-2.9-31.4-8.7c-11.2-5.8-20.2-11.5-27-17.1c-6.8-5.6-15.6-13.4-26.4-23.4
			c-25.7-23.5-73-64.5-142-123c-10.9-9-20.5-19.4-28.9-31v283.1c0,15.7,4.5,29.1,13.4,40.3c9,11.2,19.7,16.8,32.3,16.8h420.6
			c12.6,0,23.3-5.6,32.3-16.8c9-11.2,13.4-24.6,13.4-40.3V166.9C503.8,178.3,494.3,188.6,483.4,197.9z"/>
	</g>
</g>
</svg>
