
<svg xmlns="http://www.w3.org/2000/svg" version="1.1" xmlns:xlink="http://www.w3.org/1999/xlink" preserveAspectRatio="none" x="0px" y="0px" width="239px" height="35px" viewBox="0 0 239 35">
<defs>
<radialGradient id="Gradient_1" gradientUnits="userSpaceOnUse" cx="0" cy="0" r="200.06315643441198" fx="0.004019607843137108" fy="1.5691176470588235" gradientTransform="matrix( 0.00256169106363178, 0.9999967188640645, -1.4775959015567797, 0.003561375381146621, 40.85,-20.4) " spreadMethod="pad">
<stop  offset="1.9607843137254901%" stop-color="#CDC8C8"/>

<stop  offset="60.3921568627451%" stop-color="#757575"/>
</radialGradient>

<filter id="Filter_1" x="-20%" y="-20%" width="140%" height="140%" color-interpolation-filters="sRGB">
<feGaussianBlur in="SourceGraphic" stdDeviation="0,0" result="result1"/>

<feColorMatrix in="result1" type="matrix" values="0 0 0 0 1 0 0 0 0 1 0 0 0 0 1 0 0 0 1 0" result="result2"/>
</filter>

<g id="LOGO_KINETIC_TEXT_0_Layer0_0_FILL">
<path fill="url(#Gradient_1)" stroke="none" d="
M 12.95 19.05
Q 12.95 18.8 12.7 18.8
L 8.15 18.8
Q 5.9 18.8 5.9 21.05
L 5.9 47.2
Q 5.9 47.45 6.15 47.45
L 10.7 47.45
Q 12.95 47.45 12.95 45.2
L 12.95 19.05
M 33.55 18.85
L 26.8 18.8
Q 25.3 18.8 24.55 19.95 19.9 25 13.25 31.75 13.85 32.3 23.4 46.6 23.95 47.45 24.85 47.45
L 31.05 47.45
Q 31.6 47.45 31.65 47.2 31.65 46.85 31.05 46.3
L 21.4 32.05 33.55 19.4
Q 34.05 18.85 33.55 18.85
M 43.1 19.4
Q 43.1 18.75 42.55 18.75
L 37.6 18.75
Q 36.75 18.75 36.5 19.1 36.2 19.5 36.2 20.4
L 36.2 45.85
Q 36.2 46.85 36.5 47.15 36.8 47.45 37.75 47.45
L 42.5 47.45
Q 43.1 47.45 43.1 46.85
L 43.1 19.4
M 72.4 19.4
Q 72.4 18.75 71.95 18.75
L 67.5 18.75
Q 66 18.75 66 20.85
L 66 36.15 53.8 19.1
Q 53.55 18.75 53.1 18.75
L 48.1 18.75
Q 46.45 18.75 46.45 20.85
L 46.45 46.6
Q 46.45 47.15 46.5 47.25 46.6 47.45 47.1 47.45
L 51.15 47.45
Q 52.3 47.45 52.65 46.9 52.95 46.55 52.95 45.3
L 52.95 29.15 65.7 47.2
Q 65.85 47.45 66.45 47.45
L 70.95 47.45
Q 72.1 47.45 72.3 46.9 72.4 46.65 72.4 45.25
L 72.4 19.4
M 97.3 23.05
L 97.3 19.3
Q 97.3 18.75 96.9 18.75
L 77.7 18.75
Q 75.75 18.75 75.75 21
L 75.75 46.75
Q 75.75 47.45 76.4 47.45
L 96.8 47.45
Q 97.3 47.45 97.3 46.75
L 97.3 43.7
Q 97.3 42.4 97.1 42.1 96.8 41.5 95.6 41.5
L 82.2 41.5 82.2 35.95 94.4 35.95
Q 94.95 35.95 94.95 35.4
L 94.95 31
Q 94.95 30.2 94.15 30.2
L 82.2 30.2 82.2 24.55 95.5 24.55
Q 96.7 24.55 97 24.35 97.3 24.1 97.3 23.05
M 125.5 19.1
Q 125.5 18.8 125.25 18.8
L 101.8 18.8
Q 99.6 18.8 99.6 20.9
L 99.6 24.5
Q 99.6 24.85 99.9 24.85
L 109.1 24.85 109.1 47.15
Q 109.1 47.45 109.45 47.45
L 114.05 47.45
Q 116.2 47.45 116.2 45.25
L 116.2 24.85 123.3 24.85
Q 125.5 24.85 125.5 22.7
L 125.5 19.1
M 128.7 19.1
Q 128.4 19.5 128.4 20.4
L 128.4 45.85
Q 128.4 46.85 128.7 47.15 129 47.45 129.95 47.45
L 134.7 47.45
Q 135.3 47.45 135.3 46.85
L 135.3 19.4
Q 135.3 18.75 134.75 18.75
L 129.8 18.75
Q 128.95 18.75 128.7 19.1
M 162.3 24.15
L 162.3 21.4
Q 162.3 20.95 161.85 20.55 160.5 19.55 157.2 19 154.35 18.45 152.25 18.45 138.75 18.45 138.6 32.8 138.55 39.65 142.25 44.1 143.9 46.45 146.8 47.2 148.7 47.7 152.45 47.7 154.9 47.7 157.4 47.2 160.55 46.55 162 45.35 162.3 45.1 162.3 44.7
L 162.3 41.9
Q 162.3 40.1 161.1 40.1 160.65 40.1 160.15 40.25 155.55 42 152.25 42 145.6 42 145.6 32.7 145.6 30.25 145.8 29.2 146.15 27.65 147.2 25.9 148.95 23.85 152.3 23.95 154.35 24.05 160.15 25.8 160.75 25.95 161.15 25.95 162.3 25.95 162.3 24.15
M 184.95 21.55
Q 185.1 21.55 185.2 21.5 185.35 21.4 185.45 21.25 185.5 21.1 185.55 20.9 185.6 20.7 185.6 20.4 185.6 20.1 185.55 19.9 185.5 19.65 185.45 19.5 185.35 19.35 185.2 19.3 185.1 19.2 184.95 19.2
L 165.75 19.2
Q 165.55 19.2 165.45 19.3 165.3 19.35 165.25 19.5 165.15 19.65 165.1 19.9 165.05 20.1 165.05 20.4 165.05 20.7 165.1 20.9 165.15 21.1 165.25 21.25 165.3 21.4 165.45 21.5 165.55 21.55 165.75 21.55
L 174 21.55 174 46.55
Q 174 46.7 174.1 46.8 174.15 46.9 174.3 47 174.45 47.05 174.7 47.1 174.95 47.15 175.35 47.15 175.7 47.15 175.95 47.1 176.2 47.05 176.35 47 176.5 46.9 176.6 46.8 176.65 46.7 176.65 46.55
L 176.65 21.55 184.95 21.55
M 202.7 19.9
Q 202.65 19.65 202.6 19.5 202.5 19.35 202.35 19.3 202.25 19.2 202.1 19.2
L 189.25 19.2
Q 188.9 19.2 188.45 19.5 188.05 19.8 188.05 20.55
L 188.05 45.65
Q 188.05 46.4 188.45 46.7 188.9 47 189.25 47
L 202.3 47
Q 202.45 47 202.55 46.95 202.7 46.85 202.8 46.7 202.9 46.55 202.95 46.35 202.95 46.1 202.95 45.85 202.95 45.55 202.95 45.3 202.9 45.1 202.8 44.95 202.7 44.8 202.55 44.75 202.45 44.65 202.3 44.65
L 190.7 44.65 190.7 33.55 200.5 33.55
Q 200.7 33.55 200.8 33.5 200.95 33.45 201.05 33.3 201.1 33.2 201.15 33 201.2 32.8 201.2 32.5 201.2 32.2 201.15 32 201.1 31.75 201.05 31.6 200.95 31.45 200.8 31.4 200.7 31.3 200.5 31.3
L 190.7 31.3 190.7 21.55 202.1 21.55
Q 202.25 21.55 202.35 21.5 202.5 21.4 202.6 21.25 202.65 21.1 202.7 20.9 202.75 20.7 202.75 20.4 202.75 20.1 202.7 19.9
M 224.5 20.1
Q 224.65 19.8 224.7 19.6 224.7 19.4 224.55 19.3 224.4 19.15 224.1 19.1 223.75 19.05 223.3 19.05 222.85 19.05 222.6 19.1 222.35 19.15 222.2 19.2 222.05 19.25 221.95 19.35 221.85 19.5 221.8 19.65
L 215.2 30.65 208.6 19.65
Q 208.5 19.5 208.4 19.35 208.3 19.25 208.15 19.2 207.95 19.15 207.65 19.1 207.35 19.05 206.9 19.05 206.4 19.05 206.1 19.1 205.8 19.15 205.7 19.3 205.55 19.4 205.6 19.6 205.65 19.8 205.8 20.1
L 213.6 32.95 205.55 46.1
Q 205.35 46.4 205.3 46.6 205.3 46.8 205.45 46.95 205.55 47.05 205.85 47.1 206.15 47.15 206.65 47.15 207.1 47.15 207.4 47.1 207.65 47.05 207.85 47 208 46.95 208.1 46.85 208.25 46.7 208.35 46.55
L 215.15 34.95 221.85 46.55
Q 221.95 46.7 222.05 46.85 222.15 46.95 222.3 47 222.5 47.05 222.75 47.1 223.05 47.15 223.55 47.15 224.05 47.15 224.35 47.1 224.65 47.05 224.8 46.95 224.95 46.8 224.95 46.6 224.9 46.4 224.75 46.1
L 216.7 32.85 224.5 20.1
M 247.05 20.4
Q 247.05 20.1 247 19.9 246.95 19.65 246.9 19.5 246.8 19.35 246.65 19.3 246.55 19.2 246.4 19.2
L 227.2 19.2
Q 227 19.2 226.9 19.3 226.75 19.35 226.7 19.5 226.6 19.65 226.55 19.9 226.5 20.1 226.5 20.4 226.5 20.7 226.55 20.9 226.6 21.1 226.7 21.25 226.75 21.4 226.9 21.5 227 21.55 227.2 21.55
L 235.45 21.55 235.45 46.55
Q 235.45 46.7 235.55 46.8 235.6 46.9 235.75 47 235.9 47.05 236.15 47.1 236.4 47.15 236.8 47.15 237.15 47.15 237.4 47.1 237.65 47.05 237.8 47 237.95 46.9 238.05 46.8 238.1 46.7 238.1 46.55
L 238.1 21.55 246.4 21.55
Q 246.55 21.55 246.65 21.5 246.8 21.4 246.9 21.25 246.95 21.1 247 20.9 247.05 20.7 247.05 20.4 Z"/>
</g>
</defs>

<g transform="matrix( 0.7832794189453125, 0, 0, 0.782196044921875, 3,4) ">
<g filter="url(#Filter_1)" transform="matrix( 1.27667236328125, 0, 0, 1.2784423828125, -3.8,-5.1) ">
<g transform="matrix( 0.978607177734375, 0, 0, 0.976715087890625, -2.75,-14) ">
<g transform="matrix( 1, 0, 0, 1, 0,0) ">
<use xlink:href="#LOGO_KINETIC_TEXT_0_Layer0_0_FILL"/>
</g>
</g>
</g>
</g>
</svg>
