
<svg xmlns="http://www.w3.org/2000/svg" version="1.1" xmlns:xlink="http://www.w3.org/1999/xlink" preserveAspectRatio="none" x="0px" y="0px" width="139px" height="139px" viewBox="0 0 139 139">
<defs>
<g id="Layer0_0_FILL">
<path fill="#FFFFFF" stroke="none" d="
M 138.7 69.35
Q 138.7 40.6 118.4 20.3 98.1 0 69.35 0 40.6 0 20.3 20.3 0 40.6 0 69.35 0 98.1 20.3 118.4 40.6 138.7 69.35 138.7 98.1 138.7 118.4 118.4 138.7 98.1 138.7 69.35
M 93.35 22.35
L 93.35 51.85 64.85 70.15 93.35 88.65 93.35 118.3 37.7 79.4 37.7 58.25 93.35 22.35 Z"/>
</g>
</defs>

<g transform="matrix( 1, 0, 0, 1, 0,0) ">
<use xlink:href="#Layer0_0_FILL"/>
</g>
</svg>
